<?xml version="1.0" encoding="UTF-8" standalone="no"?>
<svg
   xmlns:dc="http://purl.org/dc/elements/1.1/"
   xmlns:cc="http://creativecommons.org/ns#"
   xmlns:rdf="http://www.w3.org/1999/02/22-rdf-syntax-ns#"
   xmlns:svg="http://www.w3.org/2000/svg"
   xmlns="http://www.w3.org/2000/svg"
   xmlns:xlink="http://www.w3.org/1999/xlink"
   xmlns:sodipodi="http://sodipodi.sourceforge.net/DTD/sodipodi-0.dtd"
   xmlns:inkscape="http://www.inkscape.org/namespaces/inkscape"
   width="90pt"
   height="90pt"
   viewBox="0 0 90 90"
   version="1.2"
   id="svg866"
   sodipodi:docname="pinVoce.svg"
   inkscape:version="0.92.3 (2405546, 2018-03-11)">
  <metadata
     id="metadata870">
    <rdf:RDF>
      <cc:Work
         rdf:about="">
        <dc:format>image/svg+xml</dc:format>
        <dc:type
           rdf:resource="http://purl.org/dc/dcmitype/StillImage" />
        <dc:title></dc:title>
      </cc:Work>
    </rdf:RDF>
  </metadata>
  <sodipodi:namedview
     pagecolor="#ffffff"
     bordercolor="#666666"
     borderopacity="1"
     objecttolerance="10"
     gridtolerance="10"
     guidetolerance="10"
     inkscape:pageopacity="0"
     inkscape:pageshadow="2"
     inkscape:window-width="1920"
     inkscape:window-height="1017"
     id="namedview868"
     showgrid="false"
     inkscape:zoom="4.9968879"
     inkscape:cx="49.214817"
     inkscape:cy="62.344605"
     inkscape:window-x="1912"
     inkscape:window-y="-8"
     inkscape:window-maximized="1"
     inkscape:current-layer="svg866" />
  <defs
     id="defs861">
    <clipPath
       id="clip2">
      <path
         d="M 45 90 C 69.851563 90 90 69.851563 90 45 C 90 20.148438 69.851563 0 45 0 C 20.148438 0 0 20.148438 0 45 C 0 69.851563 20.148438 90 45 90 Z M 45 90 "
         id="path815" />
    </clipPath>
    <clipPath
       id="clip3">
      <path
         d="M 35 35 L 55 35 L 55 55 L 35 55 Z M 35 35 "
         id="path818" />
    </clipPath>
    <clipPath
       id="clip4">
      <path
         d="M 45 55 C 50.523438 55 55 50.523438 55 45 C 55 39.476563 50.523438 35 45 35 C 39.476563 35 35 39.476563 35 45 C 35 50.523438 39.476563 55 45 55 Z M 45 55 "
         id="path821" />
    </clipPath>
    <clipPath
       id="clip6">
      <path
         d="M 10 20 C 15.523438 20 20 15.523438 20 10 C 20 4.476563 15.523438 0 10 0 C 4.476563 0 0 4.476563 0 10 C 0 15.523438 4.476563 20 10 20 Z M 10 20 "
         id="path824" />
    </clipPath>
    <clipPath
       id="clip7">
      <path
         d="M 10 20 C 15.523438 20 20 15.523438 20 10 C 20 4.476563 15.523438 0 10 0 C 4.476563 0 0 4.476563 0 10 C 0 15.523438 4.476563 20 10 20 Z M 10 20 "
         id="path827" />
    </clipPath>
    <clipPath
       id="clip8">
      <path
         d="M 10 20 C 15.523438 20 20 15.523438 20 10 C 20 4.476563 15.523438 0 10 0 C 4.476563 0 0 4.476563 0 10 C 0 15.523438 4.476563 20 10 20 Z M 10 20 "
         id="path830" />
    </clipPath>
    <clipPath
       id="clip5">
      <rect
         x="0"
         y="0"
         width="20"
         height="20"
         id="rect833" />
    </clipPath>
    <g
       id="surface10546"
       clip-path="url(#clip5)">
      <g
         clip-path="url(#clip6)"
         clip-rule="evenodd"
         id="g840">
        <g
           clip-path="url(#clip7)"
           clip-rule="evenodd"
           id="g838">
          <path
             style=" stroke:none;fill-rule:nonzero;fill:rgb(0%,47.842407%,100%);fill-opacity:1;"
             d="M 10 20 C 15.523438 20 20 15.523438 20 10 C 20 4.476563 15.523438 0 10 0 C 4.476563 0 0 4.476563 0 10 C 0 15.523438 4.476563 20 10 20 Z M 10 20 "
             id="path836" />
        </g>
      </g>
      <g
         clip-path="url(#clip8)"
         clip-rule="evenodd"
         id="g844">
        <path
           style="fill:none;stroke-width:4;stroke-linecap:butt;stroke-linejoin:miter;stroke:rgb(100%,100%,100%);stroke-opacity:1;stroke-miterlimit:10;"
           d="M 10 20 C 15.523438 20 20 15.523438 20 10 C 20 4.476563 15.523438 0 10 0 C 4.476563 0 0 4.476563 0 10 C 0 15.523438 4.476563 20 10 20 Z M 10 20 "
           id="path842" />
      </g>
    </g>
    <clipPath
       id="clip1">
      <rect
         x="0"
         y="0"
         width="90"
         height="90"
         id="rect847" />
    </clipPath>
    <g
       id="surface10548"
       clip-path="url(#clip1)">
      <g
         clip-path="url(#clip2)"
         clip-rule="evenodd"
         id="g852">
        <rect
           x="0"
           y="0"
           width="90"
           height="90"
           style="fill:rgb(0%,47.842407%,100%);fill-opacity:0.1;stroke:none;"
           id="rect850" />
      </g>
      <g
         clip-path="url(#clip3)"
         clip-rule="nonzero"
         id="g858">
        <g
           clip-path="url(#clip4)"
           clip-rule="evenodd"
           id="g856">
          <use
             xlink:href="#surface10546"
             transform="matrix(1,0,0,1,35,35)"
             id="use854" />
        </g>
      </g>
    </g>
  </defs>
  <g
     id="surface10541">
    <use
       xlink:href="#surface10548"
       id="use863" />
  </g>
</svg>
