<?xml version="1.0" encoding="UTF-8" standalone="no"?>
<!-- Created with Inkscape (http://www.inkscape.org/) -->

<svg
   xmlns:dc="http://purl.org/dc/elements/1.1/"
   xmlns:cc="http://creativecommons.org/ns#"
   xmlns:rdf="http://www.w3.org/1999/02/22-rdf-syntax-ns#"
   xmlns:svg="http://www.w3.org/2000/svg"
   xmlns="http://www.w3.org/2000/svg"
   xmlns:sodipodi="http://sodipodi.sourceforge.net/DTD/sodipodi-0.dtd"
   xmlns:inkscape="http://www.inkscape.org/namespaces/inkscape"
   version="1.1"
   id="svg66"
   xml:space="preserve"
   width="66.666664"
   height="75.73703"
   viewBox="0 0 66.666664 75.73703"
   sodipodi:docname="santanderTouchpointSelected.svg"
   inkscape:version="0.92.3 (2405546, 2018-03-11)"><metadata
     id="metadata72"><rdf:RDF><cc:Work
         rdf:about=""><dc:format>image/svg+xml</dc:format><dc:type
           rdf:resource="http://purl.org/dc/dcmitype/StillImage" /><dc:title></dc:title></cc:Work></rdf:RDF></metadata><defs
     id="defs70"><clipPath
       clipPathUnits="userSpaceOnUse"
       id="clipPath84"><path
         d="M 19.74989,8.375159 C 8.52234,10.38152 0,20.19551 0,32 0,45.25483 10.74517,56 24,56 37.25483,56 48,45.25483 48,32 48,20.19551 39.47766,10.38152 28.25011,8.375159 L 24,2 Z"
         id="path82"
         inkscape:connector-curvature="0" /></clipPath><clipPath
       clipPathUnits="userSpaceOnUse"
       id="clipPath90"><path
         d="M -1,-10 H 49 V 57 H -1 Z"
         id="path88"
         inkscape:connector-curvature="0" /></clipPath><clipPath
       clipPathUnits="userSpaceOnUse"
       id="clipPath100"><path
         d="M -1,-10 H 49 V 57 H -1 Z"
         id="path98"
         inkscape:connector-curvature="0" /></clipPath><clipPath
       clipPathUnits="userSpaceOnUse"
       id="clipPath112"><path
         d="m 28.50908,35.85929 -3.75761,6.55567 C 24.46495,42.91493 24.26695,43.45062 24.15701,44 l -0.15693,-0.27396 c -0.93005,-1.62271 -0.93005,-3.62159 -1.6e-4,-5.24429 l 3.00621,-5.24477 c 0.9299,-1.62254 0.9299,-3.62174 0,-5.24444 l -0.15708,-0.27397 c -0.10995,0.54938 -0.30794,1.08508 -0.59447,1.58504 l -4.50916,7.86691 c -0.28653,0.49996 -0.48436,1.03566 -0.59447,1.58504 l -0.15692,-0.27397 c -0.92686,-1.61723 -0.92974,-3.60822 -0.0091,-5.22803 l 3.01516,-5.26102 c 0.93005,-1.62254 0.93005,-3.62174 0,-5.24445 L 23.843,22.47413 c -0.10994,0.54938 -0.30794,1.08507 -0.59446,1.58487 l -3.75745,6.55584 c -0.50402,0.8792 -0.73429,1.86898 -0.69211,2.84959 C 14.77642,32.40575 12,30.15802 12,27.55552 12,23.93506 17.37257,21 24.00008,21 30.62743,21 36,23.93506 36,27.55552 c 0,2.60266 -2.7761,4.85104 -6.79897,5.90955 -0.03564,0.82882 -0.26592,1.65104 -0.69195,2.39422 z"
         id="path110"
         inkscape:connector-curvature="0"
         style="clip-rule:evenodd" /></clipPath><clipPath
       clipPathUnits="userSpaceOnUse"
       id="clipPath118"><path
         d="M 12,21 H 36 V 44 H 12 Z"
         id="path116"
         inkscape:connector-curvature="0" /></clipPath></defs><sodipodi:namedview
     pagecolor="#ffffff"
     bordercolor="#666666"
     borderopacity="1"
     objecttolerance="10"
     gridtolerance="10"
     guidetolerance="10"
     inkscape:pageopacity="0"
     inkscape:pageshadow="2"
     inkscape:window-width="1920"
     inkscape:window-height="1017"
     id="namedview68"
     showgrid="false"
     inkscape:zoom="8.9398503"
     inkscape:cx="22.75421"
     inkscape:cy="34.522928"
     inkscape:window-x="-8"
     inkscape:window-y="-8"
     inkscape:window-maximized="1"
     inkscape:current-layer="g74"
     fit-margin-top="0"
     fit-margin-left="0"
     fit-margin-right="0"
     fit-margin-bottom="0" /><g
     id="g74"
     inkscape:groupmode="layer"
     inkscape:label="santanderTouchpointSelected"
     transform="matrix(1.3333333,0,0,-1.3333333,1.3333333,75.999998)"><g
       id="g76" /><g
       id="g78"><g
         id="g80"
         clip-path="url(#clipPath84)"><g
           id="g86"
           clip-path="url(#clipPath90)"><path
             d="M -5,61 H 53 V -3 H -5 Z"
             style="fill:#ec0000;fill-opacity:1;fill-rule:nonzero;stroke:none"
             id="path92"
             inkscape:connector-curvature="0" /></g></g></g><g
       id="g94"><g
         id="g96"
         clip-path="url(#clipPath100)"><g
           id="g102"
           transform="matrix(1,0,0,-1,0,56)"><path
             d="M 19.74989,47.62484 C 8.52234,45.61848 0,35.80449 0,24 0,10.74517 10.74517,0 24,0 37.25483,0 48,10.74517 48,24 48,35.80449 39.47766,45.61848 28.25011,47.62484 L 24,54 Z"
             style="fill:none;stroke:#ffffff;stroke-width:2;stroke-linecap:butt;stroke-linejoin:miter;stroke-miterlimit:10;stroke-dasharray:none;stroke-opacity:1"
             id="path104"
             inkscape:connector-curvature="0" /></g></g></g><g
       id="g106"><g
         id="g108"
         clip-path="url(#clipPath112)"><g
           id="g114"
           clip-path="url(#clipPath118)"><path
             d="M 7,49 H 41 V 16 H 7 Z"
             style="fill:#ffffff;fill-opacity:1;fill-rule:nonzero;stroke:none"
             id="path120"
             inkscape:connector-curvature="0" /></g></g></g></g></svg>