<?xml version="1.0" encoding="UTF-8"?>
<!-- Created with Inkscape (http://www.inkscape.org/) -->
<svg width="42.667" height="53.333" version="1.1" viewBox="0 0 42.667 53.333" xml:space="preserve" xmlns="http://www.w3.org/2000/svg" xmlns:cc="http://creativecommons.org/ns#" xmlns:dc="http://purl.org/dc/elements/1.1/" xmlns:rdf="http://www.w3.org/1999/02/22-rdf-syntax-ns#"><metadata><rdf:RDF><cc:Work rdf:about=""><dc:format>image/svg+xml</dc:format><dc:type rdf:resource="http://purl.org/dc/dcmitype/StillImage"/><dc:title/></cc:Work></rdf:RDF></metadata><defs><clipPath id="clipPath3814"><path d="m13.167 8.2501c-7.485 1.3376-13.167 7.8802-13.167 15.75 0 8.8366 7.1634 16 16 16 8.8366 0 16-7.1634 16-16 0-7.8697-5.6816-14.412-13.167-15.75l-2.8334-4.2501z"/></clipPath><clipPath id="clipPath3820"><path d="m0 4h32v36h-32z"/></clipPath><clipPath id="clipPath3830"><path d="m18.818 26.081-2.3485 4.0617c-0.17908 0.30976-0.30283 0.64165-0.37154 0.98203l-0.09808-0.16974c-0.58128-1.0054-0.58128-2.2438-1e-4 -3.2492l1.8789-3.2495c0.58119-1.0053 0.58119-2.2439 0-3.2493l-0.09818-0.16973c-0.06871 0.34037-0.19246 0.67227-0.37154 0.98203l-2.8182 4.8741c-0.17908 0.30976-0.30273 0.64166-0.37154 0.98203l-0.09808-0.16973c-0.57929-1.002-0.58109-2.2355-0.0057-3.2391l1.8845-3.2596c0.58128-1.0053 0.58128-2.2439 0-3.2493l-0.09818-0.16974c-0.06871 0.34038-0.19246 0.67227-0.37154 0.98193l-2.3484 4.0618c-0.31502 0.54472-0.45894 1.158-0.43257 1.7655-2.5141-0.65592-4.2494-2.0485-4.2494-3.661 0-2.2431 3.3579-4.0616 7.5-4.0616 4.1421 0 7.5 1.8185 7.5 4.0616 0 1.6125-1.7351 3.0055-4.2494 3.6614-0.02227 0.5135-0.16619 1.0229-0.43247 1.4834z" clip-rule="evenodd"/></clipPath><clipPath id="clipPath3836"><path d="m7 15h18v18h-18z"/></clipPath></defs><g transform="matrix(1.3333 0 0 -1.3333 0 53.333)"><g clip-path="url(#clipPath3814)"><g clip-path="url(#clipPath3820)"><path d="m-5 45h42v-46h-42z" fill="#fff"/></g></g><g clip-path="url(#clipPath3830)"><g clip-path="url(#clipPath3836)"><path d="m3.5 36.125h25v-24.25h-25z" fill="#ec0000"/></g></g></g></svg>
